<svg xmlns="http://www.w3.org/2000/svg" viewBox="0 0 120 120" width="120" height="120">
  <!-- Anillo tipo sello oficial -->
  <circle cx="60" cy="60" r="52" fill="#12172B" stroke="#D4A72C" stroke-width="4"/>

  <!-- Marcas tipo sello alrededor del anillo -->
  <g stroke="#D4A72C" stroke-width="2.5" stroke-linecap="round">
    <line x1="60" y1="8"  x2="60" y2="14" />
    <line x1="60" y1="106" x2="60" y2="112" />
    <line x1="8" y1="60"  x2="14" y2="60" />
    <line x1="106" y1="60" x2="112" y2="60" />
    <line x1="21.8" y1="21.8" x2="26" y2="26" />
    <line x1="94" y1="94" x2="98.2" y2="98.2" />
    <line x1="21.8" y1="98.2" x2="26" y2="94" />
    <line x1="94" y1="26" x2="98.2" y2="21.8" />
    <line x1="39.6" y1="12.4" x2="41.9" y2="18" />
    <line x1="78.1" y1="102" x2="80.4" y2="107.6" />
    <line x1="12.4" y1="80.4" x2="18" y2="78.1" />
    <line x1="102" y1="41.9" x2="107.6" y2="39.6" />
    <line x1="12.4" y1="39.6" x2="18" y2="41.9" />
    <line x1="102" y1="78.1" x2="107.6" y2="80.4" />
    <line x1="39.6" y1="107.6" x2="41.9" y2="102" />
    <line x1="78.1" y1="18" x2="80.4" y2="12.4" />
  </g>

  <!-- Campana de alerta -->
  <circle cx="60" cy="32" r="3.2" fill="#D4A72C"/>
  <path d="M60,36
           C50,36 43,45 43,57
           L43,66
           C43,70 41,73 38,75.5
           L82,75.5
           C79,73 77,70 77,66
           L77,57
           C77,45 70,36 60,36 Z"
        fill="#D4A72C"/>
  <circle cx="60" cy="83" r="4.2" fill="#D4A72C"/>
</svg>
